<?xml version="1.0" encoding="utf-8"?>
<!-- Generator: Adobe Illustrator 19.0.0, SVG Export Plug-In . SVG Version: 6.00 Build 0)  -->
<svg version="1.1" id="Layer_1" xmlns="http://www.w3.org/2000/svg" xmlns:xlink="http://www.w3.org/1999/xlink" x="0px" y="0px"
	 viewBox="0 0 960 560" style="enable-background:new 0 0 960 560;" xml:space="preserve">
<style type="text/css">
	.st0{fill:#FFFFFF;}
</style>
<g id="XMLID_2_">
	<path id="XMLID_3_" class="st0" d="M307.1,166c-3.4,0-4.2,3.2-4.2,6.1c0,3,0.8,6.2,4.2,6.2s4.2-3.2,4.2-6.2
		C311.3,169.2,310.5,166,307.1,166z"/>
	<path id="XMLID_123_" class="st0" d="M336.6,164.8c-2.8,0-4.5,2.2-4.9,4.2h9.1C340.7,167,339,164.8,336.6,164.8z"/>
	<path id="XMLID_124_" class="st0" d="M487.8,164.8c-2.8,0-4.5,2.2-4.9,4.2h9.1C492,167,490.3,164.8,487.8,164.8z"/>
	<path id="XMLID_125_" class="st0" d="M430.2,166c-3.6,0-4.1,3.5-4.1,6.1s0.5,6.2,4.1,6.2c3.6,0,4.1-3.6,4.1-6.2
		S433.8,166,430.2,166z"/>
	<path id="XMLID_126_" class="st0" d="M459.2,166c-3.4,0-4.2,3.2-4.2,6.2c0,2.9,0.8,6.1,4.2,6.1s4.2-3.2,4.2-6.1
		C463.3,169.2,462.6,166,459.2,166z"/>
	<path id="XMLID_127_" class="st0" d="M386.7,127.3c0,1.2,1.4,2.3,3.2,2.3c2.2,0,3.2-1.3,4.2-3.9v-2.3c-2,0.6-2.6,0.9-3.9,1.2
		C388,125.1,386.7,125.6,386.7,127.3z"/>
	<path id="XMLID_128_" class="st0" d="M473.2,114.8c-2.8,0-4.5,2.2-4.9,4.2h9.1C477.4,117,475.7,114.8,473.2,114.8z"/>
	<path id="XMLID_129_" class="st0" d="M389.4,164.8c-2.8,0-4.5,2.2-4.9,4.2h9.1C393.5,167,391.8,164.8,389.4,164.8z"/>
	<path id="XMLID_130_" class="st0" d="M159.4,78.3c3.6,0,4.1-3.6,4.1-6.2S163,66,159.4,66c-3.6,0-4.1,3.5-4.1,6.1
		S155.8,78.3,159.4,78.3z"/>
	<path id="XMLID_131_" class="st0" d="M105.6,64.8c-2.8,0-4.5,2.2-4.9,4.2h9.1C109.8,67,108,64.8,105.6,64.8z"/>
	<path id="XMLID_132_" class="st0" d="M253.5,114.8c-2.8,0-4.5,2.2-4.9,4.2h9.1C257.7,117,256,114.8,253.5,114.8z"/>
	<path id="XMLID_133_" class="st0" d="M150.7,177.3c0,1.2,1.4,2.3,3.2,2.3c2.2,0,3.2-1.3,4.2-3.9v-2.3c-2,0.6-2.6,0.9-3.9,1.2
		C152,175.1,150.7,175.6,150.7,177.3z"/>
	<path id="XMLID_134_" class="st0" d="M236.3,164.8c-2.8,0-4.5,2.2-4.9,4.2h9.1C240.5,167,238.8,164.8,236.3,164.8z"/>
	<path id="XMLID_135_" class="st0" d="M264.9,166c-3.4,0-4.2,3.2-4.2,6.1c0,3,0.8,6.2,4.2,6.2s4.2-3.2,4.2-6.2
		C269.1,169.2,268.3,166,264.9,166z"/>
	<path id="XMLID_136_" class="st0" d="M177.3,127.3c0,1.2,1.1,2.3,2.8,2.3c2.2,0,3.8-1.3,3.8-3.9v-2.3c-1,0.6-2.3,0.9-3.6,1.2
		C178.3,125.1,177.3,125.6,177.3,127.3z"/>
	<path id="XMLID_137_" class="st0" d="M668.9,127.3c0,1.2,1.3,2.3,3,2.3c2.2,0,4.1-1.3,4.1-3.9v-2.3c-1,0.6-2.5,0.9-3.8,1.2
		C670.1,125.1,668.9,125.6,668.9,127.3z"/>
	<path id="XMLID_138_" class="st0" d="M568.1,114.8c-2.8,0-4.5,2.2-4.9,4.2h9.1C572.3,117,570.6,114.8,568.1,114.8z"/>
	<path id="XMLID_141_" class="st0" d="M0,0v560h960V0H0z M335,100h15.3l4.9,20h0.1l4.9-20H375v35h-10v-22h0.2l-6,22h-7.9l-6-22H345
		v22h-10V100z M305.1,124.8c-7.2-1.2-10.2-3.6-10.2-7.8c0-6.3,6.8-7.9,11.8-7.9c5.4,0,11.9,1.9,12.1,7.9h-8.6c0-1-0.5-1.5-1.1-1.9
		c-0.6-0.5-1.3-0.7-2.1-0.7c-1.3,0-2.9,0.3-2.9,1.9c0,0.7,0.6,1.1,1.1,1.3c1.6,0.7,5.2,0.9,8.4,1.9c3.2,1,6,2.9,6,7
		c0,6.9-6.6,8.6-12.7,8.6c-5.9,0-12.3-2-12.4-9h9.1c0,1,0.4,1.8,1.2,2.4c0.5,0.4,1.4,0.8,2.5,0.8c1.2,0,3.2-0.4,3.2-1.9
		C310.4,126,309.5,125.6,305.1,124.8z M252.7,108.9c9.9,0,14.2,6.1,14.2,15.1h-18.2c0.2,3,1.9,4.8,4.8,4.8c1.5,0,3.2,0.2,4-1.8h8.9
		c-1.9,6-7.2,8.1-12.8,8.1c-8,0-14-4.7-14-13C239.5,114.8,244.8,108.9,252.7,108.9z M196,110h10v3h-0.4c1.9-3,4.7-3.9,8.2-3.9
		c2.7,0,5.6,1.4,6.7,3.9c0.4-0.3,2.5-3.9,8.7-3.9c6.4,0,8.8,4.4,8.8,8.4V135h-10v-13.9c0-2.4-0.1-4.5-3-4.5c-2.4,0-3,1.9-3,4.5V135
		h-10v-13.9c0-2.4-0.1-4.5-3-4.5c-2.4,0-3,1.9-3,4.5V135h-10V110z M176,75h10v10h-10V75z M159.4,59.1c9.4,0,13.6,6.1,13.6,13.1
		s-4.2,13.1-13.6,13.1c-9.4,0-13.6-6.2-13.6-13.1S150.1,59.1,159.4,59.1z M104.7,58.9c9.9,0,14.2,6.1,14.2,15.1h-18.2
		c0.2,3,1.9,4.8,4.8,4.8c1.5,0,3.2,0.2,4-1.8h8.9c-1.9,6-7.2,8.1-12.8,8.1c-8,0-14-4.7-14-13C91.6,64.8,96.9,58.9,104.7,58.9z
		 M58,50h11v12h10V50h10v35H79V71H69v14H58V50z M69,185H58v-35h11V185z M80,169h-7v-19h7V169z M125,185h-9v-13.9
		c0-2.4-0.1-4.5-3-4.5c-2.4,0-3,1.9-3,4.5V185h-10v-13.9c0-2.4-0.1-4.5-3-4.5c-2.4,0-3,1.9-3,4.5V185H84v-25h9v3h0.5
		c1.9-3,4.7-3.9,8.2-3.9c2.7,0,5.6,1.4,6.7,3.9c0.4-0.3,2.1-3.9,8.3-3.9c6.4,0,8.3,4.4,8.3,8.4V185z M118.1,132.8
		c-0.8,2.2-1.6,5.1-3.1,7c-2.5,3.1-6.3,3.2-10,3.2H101v-8h1.8c1,0,2.2,0.1,2.9-0.2c0.6-0.3,0.9-0.7,0.9-1.9c0-1.2-3.8-10.4-4.3-11.8
		L98,110v25H88v-22h0.2l-6,22h-7.9l-6-22H68v22H58v-35h15.4l4.9,20h0.1l4.9-20H98v10h10.4l4,14h0.1l4-14h9.8L118.1,132.8z M130,85
		h-9V50h9V85z M134,50h10v35h-10V50z M140,110h9v3h0.4c1.8-3,4.3-3.9,8.1-3.9c4.5,0,8.5,2.7,8.5,8.4V135h-9v-13.5
		c0-2.9-0.4-4.9-3.2-4.9c-1.6,0-3.8,0.8-3.8,4.8V135h-10V110z M158.2,185c-0.2-1-0.4-2-0.3-3h-0.1c-2,3-4.9,3.1-8,3.1
		c-4.8,0-8.8-2.2-8.8-7.5c0-7.9,9.2-7.6,14.1-8.5c1.3-0.2,2.6-0.6,2.6-2.2c0-1.7-1.6-2.4-3.1-2.4c-2.9,0-3.5,1.4-3.6,2.4h-8.8
		c0.1-3,1.9-5.5,4.3-6.6c2.4-1.2,5.7-1.4,8.6-1.4c11.9,0,11.9,5,11.9,9.8V179c0,1.9-0.2,4,0.9,6H158.2z M167.6,127.7
		c0-7.9,9.2-7.6,14.1-8.5c1.3-0.2,2.6-0.6,2.6-2.2c0-1.7-1.6-2.4-3.1-2.4c-2.9,0-3.5,1.4-3.6,2.4h-8.8c0.1-3,1.9-5.5,4.3-6.6
		c2.4-1.2,5.4-1.4,8.3-1.4c11.9,0,11.6,5,11.6,9.8V129c0,1.9,0.5,4,1.6,6h-9.7c-0.2-1-0.4-2-0.3-3h-0.1c-2,3-4.9,3.1-8,3.1
		C171.6,135.1,167.6,132.9,167.6,127.7z M205.6,185l-3.6-16h-0.1l-3.7,16h-9.7l-7.8-25h9.9l3.7,15h0.1l3.2-15h8.9l3.3,15h0.2l3.5-15
		h9.9l-7.9,25H205.6z M236.2,178.8c1.5,0,3.2,0.2,4-1.8h8.9c-1.9,6-7.2,8.1-12.8,8.1c-8,0-14-4.6-14-12.9c0-7.2,5.3-13.3,13.2-13.3
		c9.9,0,14.2,6.1,14.2,15.1h-18.2C231.6,177,233.3,178.8,236.2,178.8z M268.1,185.3c-4.7,0-6.1-2.3-7.3-3.3h0.2v3h-9v-35h9v12h0.2
		c1.4-2,4-3.1,6.8-3.1c8.4,0,10.6,7.2,10.6,13.1C278.6,178.2,275.2,185.3,268.1,185.3z M292,135h-9v-25h9V135z M292,107h-9v-7h9V107
		z M320,185h-9v-3h0.2c-1.2,1-2.6,3.3-7.3,3.3c-7.1,0-10.5-7-10.5-13.2c0-5.9,2.3-13.2,10.6-13.2c2.8,0,5.4,1.1,6.8,3.1h0.1v-12h9
		V185z M336.5,178.8c1.5,0,3.2,0.2,4-1.8h8.9c-1.9,6-7.2,8.1-12.8,8.1c-8,0-14-4.6-14-12.9c0-7.2,5.3-13.3,13.2-13.3
		c9.9,0,14.2,6.1,14.2,15.1h-18.2C331.9,177,333.5,178.8,336.5,178.8z M356.9,185l-8.2-25h10l3.9,15h0.1l3.9-15h9.7l-8.3,25H356.9z
		 M389.3,178.8c1.5,0,3.2,0.2,4-1.8h8.9c-1.9,6-7.2,8.1-12.8,8.1c-8,0-14-4.6-14-12.9c0-7.2,5.3-13.3,13.2-13.3
		c9.9,0,14.2,6.1,14.2,15.1h-18.2C384.7,177,386.3,178.8,389.3,178.8z M394.2,135c-0.2-1-0.4-2-0.3-3h-0.1c-2,3-4.9,3.1-8,3.1
		c-4.8,0-8.8-2.2-8.8-7.5c0-7.9,9.2-7.6,14.1-8.5c1.3-0.2,2.6-0.6,2.6-2.2c0-1.7-1.6-2.4-3.1-2.4c-2.9,0-3.5,1.4-3.6,2.4h-8.8
		c0.1-3,1.9-5.5,4.3-6.6c2.4-1.2,5.7-1.4,8.6-1.4c11.9,0,11.9,5,11.9,9.8V129c0,1.9-0.2,4,0.9,6H394.2z M418.2,109
		c6.5,0,12.1,3,12.7,10h-9c-0.1-1-0.4-1.8-1.1-2.3c-0.6-0.5-1.4-0.8-2.4-0.8c-3.6,0-4.2,3.2-4.2,6.2s0.5,6.3,4.2,6.3
		c2.1,0,3.5-1.5,3.7-3.5h9.1c-0.4,3-2,5.8-4.3,7.7c-2.3,1.8-5.3,2.7-8.6,2.7c-7.5,0-13.5-5.3-13.5-13.1S410.7,109,418.2,109z
		 M414,185h-9v-35h9V185z M430.2,185.2c-9.4,0-13.6-6.2-13.6-13.1s4.2-13.1,13.6-13.1c9.4,0,13.6,6.1,13.6,13.1
		S439.5,185.2,430.2,185.2z M443,127.4v7.6h-10v-35h10v16.9l5.7-6.9h10.8l-8.9,9.5l10.3,15.5h-11.4l-4.9-9.2L443,127.4z
		 M462.2,185.3c-2.8,0-5.4-1.3-6.8-3.3H455v11h-9v-33h9v2h0.1c1.2-1,2.6-3.1,7.3-3.1c7.1,0,10.5,7.1,10.5,13.3
		C472.8,178.1,470.6,185.3,462.2,185.3z M459.2,122.2c0-7.2,5.3-13.3,13.2-13.3c9.9,0,14.2,6.1,14.2,15.1h-18.2
		c0.2,3,1.9,4.8,4.8,4.8c1.5,0,3.2,0.2,4-1.8h8.9c-1.9,6-7.2,8.1-12.8,8.1C465.2,135.1,459.2,130.5,459.2,122.2z M487.7,178.8
		c1.5,0,3.2,0.2,4-1.8h8.9c-1.9,6-7.2,8.1-12.8,8.1c-8,0-14-4.6-14-12.9c0-7.2,5.3-13.3,13.2-13.3c9.9,0,14.2,6.1,14.2,15.1h-18.2
		C483.1,177,484.7,178.8,487.7,178.8z M498,121.5V135h-10v-25h10v3h-0.3c1.8-3,4.1-3.9,7.9-3.9c4.5,0,8.4,2.7,8.4,8.4V135h-9v-13.5
		c0-2.9-0.4-4.9-3.2-4.9C500.2,116.7,498,117.5,498,121.5z M513,174.8V185h-10v-25h9v4h0.2c1.5-3,3.5-4.8,7-4.8c1,0,1.8,0,2.8,0.2
		v8.4c-1-0.3-1.6-0.6-3.5-0.6C514.8,167.2,513,169.4,513,174.8z M528,185h-10v-10h10V185z M541,135h-25v-7.7l11.4-10.3H517v-7h23v7
		l-11.8,11H541V135z M552,135h-10v-25h10V135z M552,107h-10v-7h10V107z M568,128.8c1.5,0,3.2,0.2,4-1.8h8.9c-1.9,6-7.2,8.1-12.8,8.1
		c-8,0-14-4.6-14-12.9c0-7.2,5.3-13.3,13.2-13.3c9.9,0,14.2,6.1,14.2,15.1h-18.2C563.4,127,565,128.8,568,128.8z M613.8,135.3
		c-11.1,0-17.4-7.8-17.4-17.9c0-10.8,6.8-18,17.4-18c9.4,0,14.6,5.6,15.5,13.6H619c-0.2-1-1.2-5-5.5-5c-4.9,0-6.5,4.8-6.5,9.4
		s1.6,9.3,6.5,9.3c3.6,0,4.9-2.8,5.6-5.8h10.4C629.5,128,623.8,135.3,613.8,135.3z M658,135h-10v-13.5c0-2.9-0.4-4.9-3.2-4.9
		c-1.6,0-3.8,0.8-3.8,4.8V135h-9v-35h9v12h0.3c1.6-2,4-3.1,8-3.1c4.5,0,8.8,2.9,8.8,8.6V135z M676.4,135c-0.2-1-0.4-2-0.3-3H676
		c-2,3-4.9,3.1-8,3.1c-4.8,0-8.8-2.2-8.8-7.5c0-7.9,9.2-7.6,14.1-8.5c1.3-0.2,2.6-0.6,2.6-2.2c0-1.7-1.6-2.4-3.1-2.4
		c-2.9,0-3.5,1.4-3.6,2.4h-8.8c0.1-3,1.9-5.5,4.3-6.6c2.4-1.2,5.6-1.4,8.5-1.4c11.9,0,11.8,5,11.8,9.8V129c0,1.9,0.1,4,1.1,6H676.4z
		 M707,117.9c-1-0.3-2.1-0.6-4-0.6c-3.7,0-6,2.2-6,7.5V135h-9v-25h9v4h0.2c1.5-3,3.6-4.8,7-4.8c1,0,1.8,0,2.8,0.2V117.9z M719,135
		h-9v-35h9V135z M742,134.6c-2,0-4.3,0.3-6.3,0.3c-4,0-8.7-0.6-8.7-7.4V116h-4v-6h4v-8h9v8h6v6h-6v8.2c0,2.3,1,3.3,3.4,3.3
		c0.7,0,1.6,0,2.6-0.1V134.6z M755.1,135.2c-9.4,0-13.6-6.2-13.6-13.1s4.2-13.1,13.6-13.1c9.4,0,13.6,6.1,13.6,13.1
		S764.4,135.2,755.1,135.2z M797,135h-10v-13.5c0-2.9-0.4-4.9-3.2-4.9c-1.6,0-3.8,0.8-3.8,4.8V135h-9v-25h9v3h0
		c1.8-3,4.5-3.9,8.3-3.9c4.5,0,8.7,2.7,8.7,8.4V135z M810,135h-10v-10h10V135z"/>
	<path id="XMLID_191_" class="st0" d="M755.1,116c-3.6,0-4.1,3.5-4.1,6.1s0.5,6.2,4.1,6.2c3.6,0,4.1-3.6,4.1-6.2
		S758.7,116,755.1,116z"/>
</g>
</svg>
